# xmcd
#
# Track frame offsets: 
#        150
#        23244
#        40482
#        65249
#        84022
#        105839
#        122252
#        153923
#        183610
#        200146
#        224837
#        241075
#        259203
#        277040
#        295025
#        313311
#        330438
#
# Disc length: 4763 seconds
#
# Revision: 0
# Processed by: cddbd v1.5.2PL0 Copyright (c) Steve Scherf et al.
# Submitted via: ExactAudioCopy v1.3
#
DISCID=fa129911
DTITLE=Ashford and Simpson - Love Will Fix It - The Warner Bros. Records
DTITLE=Anthology 1973-1981
DYEAR=2018
DGENRE=Soul
TTITLE0=It Seems To Hang On
TTITLE1=Is It Still Good To Ya
TTITLE2=Ain't It A Shame (Long Version)
TTITLE3=The Debt Is Settled (Long Version)
TTITLE4=Get Up And Do Something
TTITLE5=Flashback (Single Remix)
TTITLE6=Found A Cure
TTITLE7=Nobody Knows
TTITLE8=Crazy
TTITLE9=Stay Free
TTITLE10=Love Don't Make It Right (Single Remix)
TTITLE11=I Ain't Asking For Your Love
TTITLE12=Happy Endings (Single Version)
TTITLE13=Get Out Your Handkerchief
TTITLE14=It Shows In The Eyes
TTITLE15=It's The Long Run (Single Version)
TTITLE16=Live Medley - You're All I Need To Get By , Ain't Nothing Lik
TTITLE16=e The Real Thing , Ain't No Mountain High Enough
EXTD=
EXTT0=
EXTT1=
EXTT2=
EXTT3=
EXTT4=
EXTT5=
EXTT6=
EXTT7=
EXTT8=
EXTT9=
EXTT10=
EXTT11=
EXTT12=
EXTT13=
EXTT14=
EXTT15=
EXTT16=
PLAYORDER=
